REM DIRINDEX 1\2\4\8,1\2\4\9,1\2\4\10,1\2\5\11,1\2\5\12,1\2\5\13,1\2\5\14,1\2\5\15,1\3\6\16,1\3\6\17,1\3\6\18,1\3\7\19,1\3\7\20,1\3\7\21,1\3\7\22,1\3\7\23
REM DIRNAME "folder01","folder02","folder03","folder04","folder05","folder06","folder07","folder08","folder09","folder10","folder11","folder12","folder13","folder14","folder15","folder16","folder17","folder18","folder19","folder20","folder21","folder22","folder23"
TITLE ""
FILE "LR_black_phrase_E_B08.mp3" MP3
  TRACK 01 AUDIO
    TITLE "0:"
    INDEX 01 00:00:00
  TRACK 02 AUDIO
    TITLE "16:cjc171_09531"
    INDEX 01 00:00:14
  TRACK 03 AUDIO
    TITLE "0:"
    INDEX 01 00:01:31
  TRACK 04 AUDIO
    TITLE "17:cjc171_09532"
    INDEX 01 00:01:61
  TRACK 05 AUDIO
    TITLE "0:"
    INDEX 01 00:03:58
  TRACK 06 AUDIO
    TITLE "18:cjc171_09533"
    INDEX 01 00:04:37
  TRACK 07 AUDIO
    TITLE "0:"
    INDEX 01 00:06:34
  TRACK 08 AUDIO
    TITLE "16:cjc171_09534"
    INDEX 01 00:07:40
  TRACK 09 AUDIO
    TITLE "0:"
    INDEX 01 00:08:53
  TRACK 10 AUDIO
    TITLE "17:cjc171_09535"
    INDEX 01 00:09:03
  TRACK 11 AUDIO
    TITLE "0:"
    INDEX 01 00:11:30
  TRACK 12 AUDIO
    TITLE "18:cjc171_09536"
    INDEX 01 00:12:10
  TRACK 13 AUDIO
    TITLE "0:"
    INDEX 01 00:14:38
  TRACK 14 AUDIO
    TITLE "16:cjc171_09537"
    INDEX 01 00:15:41
  TRACK 15 AUDIO
    TITLE "0:"
    INDEX 01 00:16:62
  TRACK 16 AUDIO
    TITLE "17:cjc171_09538"
    INDEX 01 00:17:19
  TRACK 17 AUDIO
    TITLE "0:"
    INDEX 01 00:19:51
  TRACK 18 AUDIO
    TITLE "18:cjc171_09539"
    INDEX 01 00:20:29
  TRACK 19 AUDIO
    TITLE "0:"
    INDEX 01 00:22:63
  TRACK 20 AUDIO
    TITLE "16:cjc171_09540"
    INDEX 01 00:23:58
  TRACK 21 AUDIO
    TITLE "0:"
    INDEX 01 00:25:00
  TRACK 22 AUDIO
    TITLE "17:cjc171_09541"
    INDEX 01 00:25:22
  TRACK 23 AUDIO
    TITLE "0:"
    INDEX 01 00:27:58
  TRACK 24 AUDIO
    TITLE "18:cjc171_09542"
    INDEX 01 00:28:30
  TRACK 25 AUDIO
    TITLE "0:"
    INDEX 01 00:30:66
  TRACK 26 AUDIO
    TITLE "16:cjc171_09543"
    INDEX 01 00:31:62
  TRACK 27 AUDIO
    TITLE "0:"
    INDEX 01 00:33:02
  TRACK 28 AUDIO
    TITLE "17:cjc171_09544"
    INDEX 01 00:33:22
  TRACK 29 AUDIO
    TITLE "0:"
    INDEX 01 00:34:70
  TRACK 30 AUDIO
    TITLE "18:cjc171_09545"
    INDEX 01 00:35:40
  TRACK 31 AUDIO
    TITLE "0:"
    INDEX 01 00:37:11
  TRACK 32 AUDIO
    TITLE "16:cjc171_09546"
    INDEX 01 00:38:07
  TRACK 33 AUDIO
    TITLE "0:"
    INDEX 01 00:39:04
  TRACK 34 AUDIO
    TITLE "17:cjc171_09547"
    INDEX 01 00:39:28
  TRACK 35 AUDIO
    TITLE "0:"
    INDEX 01 00:41:37
  TRACK 36 AUDIO
    TITLE "18:cjc171_09548"
    INDEX 01 00:42:11
  TRACK 37 AUDIO
    TITLE "0:"
    INDEX 01 00:44:19
  TRACK 38 AUDIO
    TITLE "16:cjc171_09549"
    INDEX 01 00:45:21
  TRACK 39 AUDIO
    TITLE "0:"
    INDEX 01 00:46:36
  TRACK 40 AUDIO
    TITLE "17:cjc171_09550"
    INDEX 01 00:46:61
  TRACK 41 AUDIO
    TITLE "0:"
    INDEX 01 00:48:74
  TRACK 42 AUDIO
    TITLE "18:cjc171_09551"
    INDEX 01 00:49:54
  TRACK 43 AUDIO
    TITLE "0:"
    INDEX 01 00:51:66
  TRACK 44 AUDIO
    TITLE "16:cjc171_09552"
    INDEX 01 00:52:70
  TRACK 45 AUDIO
    TITLE "0:"
    INDEX 01 00:54:26
  TRACK 46 AUDIO
    TITLE "17:cjc171_09553"
    INDEX 01 00:54:55
  TRACK 47 AUDIO
    TITLE "0:"
    INDEX 01 00:57:22
  TRACK 48 AUDIO
    TITLE "18:cjc171_09554"
    INDEX 01 00:58:04
  TRACK 49 AUDIO
    TITLE "0:"
    INDEX 01 01:00:44
  TRACK 50 AUDIO
    TITLE "16:cjc171_09555"
    INDEX 01 01:01:49
  TRACK 51 AUDIO
    TITLE "0:"
    INDEX 01 01:02:72
  TRACK 52 AUDIO
    TITLE "17:cjc171_09556"
    INDEX 01 01:03:27
  TRACK 53 AUDIO
    TITLE "0:"
    INDEX 01 01:06:05
  TRACK 54 AUDIO
    TITLE "18:cjc171_09557"
    INDEX 01 01:06:60
  TRACK 55 AUDIO
    TITLE "0:"
    INDEX 01 01:09:37
  TRACK 56 AUDIO
    TITLE "16:cjc171_09558"
    INDEX 01 01:10:36
  TRACK 57 AUDIO
    TITLE "0:"
    INDEX 01 01:11:46
  TRACK 58 AUDIO
    TITLE "17:cjc171_09559"
    INDEX 01 01:11:69
  TRACK 59 AUDIO
    TITLE "0:"
    INDEX 01 01:13:62
  TRACK 60 AUDIO
    TITLE "18:cjc171_09560"
    INDEX 01 01:14:32
  TRACK 61 AUDIO
    TITLE "0:"
    INDEX 01 01:16:27
  TRACK 62 AUDIO
    TITLE "16:cjc171_09561"
    INDEX 01 01:17:25
  TRACK 63 AUDIO
    TITLE "0:"
    INDEX 01 01:18:30
  TRACK 64 AUDIO
    TITLE "17:cjc171_09562"
    INDEX 01 01:18:54
  TRACK 65 AUDIO
    TITLE "0:"
    INDEX 01 01:20:23
  TRACK 66 AUDIO
    TITLE "18:cjc171_09563"
    INDEX 01 01:21:03
  TRACK 67 AUDIO
    TITLE "0:"
    INDEX 01 01:22:43
  TRACK 68 AUDIO
    TITLE "16:cjc171_09564"
    INDEX 01 01:23:47
  TRACK 69 AUDIO
    TITLE "0:"
    INDEX 01 01:24:58
  TRACK 70 AUDIO
    TITLE "17:cjc171_09565"
    INDEX 01 01:25:05
  TRACK 71 AUDIO
    TITLE "0:"
    INDEX 01 01:27:29
  TRACK 72 AUDIO
    TITLE "18:cjc171_09566"
    INDEX 01 01:27:74
  TRACK 73 AUDIO
    TITLE "0:"
    INDEX 01 01:30:25
  TRACK 74 AUDIO
    TITLE "16:cjc171_09567"
    INDEX 01 01:31:25
  TRACK 75 AUDIO
    TITLE "0:"
    INDEX 01 01:32:38
  TRACK 76 AUDIO
    TITLE "17:cjc171_09568"
    INDEX 01 01:32:67
  TRACK 77 AUDIO
    TITLE "0:"
    INDEX 01 01:35:32
  TRACK 78 AUDIO
    TITLE "18:cjc171_09569"
    INDEX 01 01:36:12
  TRACK 79 AUDIO
    TITLE "0:"
    INDEX 01 01:38:52
  TRACK 80 AUDIO
    TITLE "16:cjc171_09570"
    INDEX 01 01:39:58
  TRACK 81 AUDIO
    TITLE "0:"
    INDEX 01 01:41:02
  TRACK 82 AUDIO
    TITLE "17:cjc171_09571"
    INDEX 01 01:41:33
  TRACK 83 AUDIO
    TITLE "0:"
    INDEX 01 01:43:22
  TRACK 84 AUDIO
    TITLE "18:cjc171_09572"
    INDEX 01 01:44:00
  TRACK 85 AUDIO
    TITLE "0:"
    INDEX 01 01:45:64
  TRACK 86 AUDIO
    TITLE "16:cjc171_09573"
    INDEX 01 01:46:67
  TRACK 87 AUDIO
    TITLE "0:"
    INDEX 01 01:48:17
  TRACK 88 AUDIO
    TITLE "17:cjc171_09574"
    INDEX 01 01:48:47
  TRACK 89 AUDIO
    TITLE "0:"
    INDEX 01 01:50:36
  TRACK 90 AUDIO
    TITLE "18:cjc171_09575"
    INDEX 01 01:51:16
  TRACK 91 AUDIO
    TITLE "0:"
    INDEX 01 01:53:03
  TRACK 92 AUDIO
    TITLE "16:cjc171_09576"
    INDEX 01 01:54:08
  TRACK 93 AUDIO
    TITLE "0:"
    INDEX 01 01:55:43
  TRACK 94 AUDIO
    TITLE "17:cjc171_09577"
    INDEX 01 01:55:66
  TRACK 95 AUDIO
    TITLE "0:"
    INDEX 01 01:58:16
  TRACK 96 AUDIO
    TITLE "18:cjc171_09578"
    INDEX 01 01:58:71
  TRACK 97 AUDIO
    TITLE "0:"
    INDEX 01 02:01:18
  TRACK 98 AUDIO
    TITLE "16:cjc171_09579"
    INDEX 01 02:02:18
  TRACK 99 AUDIO
    TITLE "0:"
    INDEX 01 02:03:31
  TRACK 100 AUDIO
    TITLE "17:cjc171_09580"
    INDEX 01 02:03:60
  TRACK 101 AUDIO
    TITLE "0:"
    INDEX 01 02:05:61
  TRACK 102 AUDIO
    TITLE "18:cjc171_09581"
    INDEX 01 02:06:35
  TRACK 103 AUDIO
    TITLE "0:"
    INDEX 01 02:08:34
  TRACK 104 AUDIO
    TITLE "16:cjc171_09582"
    INDEX 01 02:09:29
  TRACK 105 AUDIO
    TITLE "0:"
    INDEX 01 02:10:44
  TRACK 106 AUDIO
    TITLE "17:cjc171_09583"
    INDEX 01 02:10:70
  TRACK 107 AUDIO
    TITLE "0:"
    INDEX 01 02:12:39
  TRACK 108 AUDIO
    TITLE "18:cjc171_09584"
    INDEX 01 02:13:11
  TRACK 109 AUDIO
    TITLE "0:"
    INDEX 01 02:14:60
  TRACK 110 AUDIO
    TITLE "16:cjc171_09585"
    INDEX 01 02:15:59
  TRACK 111 AUDIO
    TITLE "0:"
    INDEX 01 02:16:74
  TRACK 112 AUDIO
    TITLE "17:cjc171_09586"
    INDEX 01 02:17:27
  TRACK 113 AUDIO
    TITLE "0:"
    INDEX 01 02:20:21
  TRACK 114 AUDIO
    TITLE "18:cjc171_09587"
    INDEX 01 02:20:74
  TRACK 115 AUDIO
    TITLE "0:"
    INDEX 01 02:23:67
  TRACK 116 AUDIO
    TITLE "16:cjc171_09588"
    INDEX 01 02:24:72
  TRACK 117 AUDIO
    TITLE "0:"
    INDEX 01 02:26:16
  TRACK 118 AUDIO
    TITLE "17:cjc171_09589"
    INDEX 01 02:26:47
  TRACK 119 AUDIO
    TITLE "0:"
    INDEX 01 02:28:48
  TRACK 120 AUDIO
    TITLE "18:cjc171_09590"
    INDEX 01 02:29:28
  TRACK 121 AUDIO
    TITLE "0:"
    INDEX 01 02:31:27
  TRACK 122 AUDIO
    TITLE "16:cjc171_09591"
    INDEX 01 02:32:32
  TRACK 123 AUDIO
    TITLE "0:"
    INDEX 01 02:33:49
  TRACK 124 AUDIO
    TITLE "17:cjc171_09592"
    INDEX 01 02:34:02
  TRACK 125 AUDIO
    TITLE "0:"
    INDEX 01 02:36:12
  TRACK 126 AUDIO
    TITLE "18:cjc171_09593"
    INDEX 01 02:36:69
  TRACK 127 AUDIO
    TITLE "0:"
    INDEX 01 02:39:05
  TRACK 128 AUDIO
    TITLE "16:cjc171_09594"
    INDEX 01 02:40:06
  TRACK 129 AUDIO
    TITLE "0:"
    INDEX 01 02:41:37
  TRACK 130 AUDIO
    TITLE "17:cjc171_09595"
    INDEX 01 02:41:65
  TRACK 131 AUDIO
    TITLE "0:"
    INDEX 01 02:44:00
  TRACK 132 AUDIO
    TITLE "18:cjc171_09596"
    INDEX 01 02:44:51
  TRACK 133 AUDIO
    TITLE "0:"
    INDEX 01 02:46:64
  TRACK 134 AUDIO
    TITLE "16:cjc171_09597"
    INDEX 01 02:47:59
  TRACK 135 AUDIO
    TITLE "0:"
    INDEX 01 02:48:65
  TRACK 136 AUDIO
    TITLE "17:cjc171_09598"
    INDEX 01 02:49:09
  TRACK 137 AUDIO
    TITLE "0:"
    INDEX 01 02:51:57
  TRACK 138 AUDIO
    TITLE "18:cjc171_09599"
    INDEX 01 02:52:27
  TRACK 139 AUDIO
    TITLE "0:"
    INDEX 01 02:55:00
  TRACK 140 AUDIO
    TITLE "16:cjc171_09600"
    INDEX 01 02:55:71
  TRACK 141 AUDIO
    TITLE "0:"
    INDEX 01 02:56:74
  TRACK 142 AUDIO
    TITLE "17:cjc171_09601"
    INDEX 01 02:57:19
  TRACK 143 AUDIO
    TITLE "0:"
    INDEX 01 02:59:37
  TRACK 144 AUDIO
    TITLE "18:cjc171_09602"
    INDEX 01 03:00:07
  TRACK 145 AUDIO
    TITLE "0:"
    INDEX 01 03:02:24
  TRACK 146 AUDIO
    TITLE "16:cjc171_09603"
    INDEX 01 03:03:25
  TRACK 147 AUDIO
    TITLE "0:"
    INDEX 01 03:04:32
  TRACK 148 AUDIO
    TITLE "17:cjc171_09604"
    INDEX 01 03:04:64
  TRACK 149 AUDIO
    TITLE "0:"
    INDEX 01 03:06:45
  TRACK 150 AUDIO
    TITLE "18:cjc171_09605"
    INDEX 01 03:07:25
  TRACK 151 AUDIO
    TITLE "0:"
    INDEX 01 03:09:08
  TRACK 152 AUDIO
    TITLE "16:cjc171_09606"
    INDEX 01 03:10:11
  TRACK 153 AUDIO
    TITLE "0:"
    INDEX 01 03:11:23
  TRACK 154 AUDIO
    TITLE "17:cjc171_09607"
    INDEX 01 03:11:52
  TRACK 155 AUDIO
    TITLE "0:"
    INDEX 01 03:13:22
  TRACK 156 AUDIO
    TITLE "18:cjc171_09608"
    INDEX 01 03:14:01
  TRACK 157 AUDIO
    TITLE "0:"
    INDEX 01 03:15:48
  TRACK 158 AUDIO
    TITLE "16:cjc171_09609"
    INDEX 01 03:16:51
  TRACK 159 AUDIO
    TITLE "0:"
    INDEX 01 03:17:68
  TRACK 160 AUDIO
    TITLE "17:cjc171_09610"
    INDEX 01 03:18:25
  TRACK 161 AUDIO
    TITLE "0:"
    INDEX 01 03:20:31
  TRACK 162 AUDIO
    TITLE "18:cjc171_09611"
    INDEX 01 03:21:09
  TRACK 163 AUDIO
    TITLE "0:"
    INDEX 01 03:23:16
  TRACK 164 AUDIO
    TITLE "16:cjc171_09612"
    INDEX 01 03:24:13
  TRACK 165 AUDIO
    TITLE "0:"
    INDEX 01 03:25:31
  TRACK 166 AUDIO
    TITLE "17:cjc171_09613"
    INDEX 01 03:25:54
  TRACK 167 AUDIO
    TITLE "0:"
    INDEX 01 03:27:47
  TRACK 168 AUDIO
    TITLE "18:cjc171_09614"
    INDEX 01 03:28:23
  TRACK 169 AUDIO
    TITLE "0:"
    INDEX 01 03:30:16
  TRACK 170 AUDIO
    TITLE "16:cjc171_09615"
    INDEX 01 03:31:15
  TRACK 171 AUDIO
    TITLE "0:"
    INDEX 01 03:32:48
  TRACK 172 AUDIO
    TITLE "17:cjc171_09616"
    INDEX 01 03:32:70
  TRACK 173 AUDIO
    TITLE "0:"
    INDEX 01 03:35:19
  TRACK 174 AUDIO
    TITLE "18:cjc171_09617"
    INDEX 01 03:35:68
  TRACK 175 AUDIO
    TITLE "0:"
    INDEX 01 03:38:16
  TRACK 176 AUDIO
    TITLE "16:cjc171_09618"
    INDEX 01 03:39:15
  TRACK 177 AUDIO
    TITLE "0:"
    INDEX 01 03:40:22
  TRACK 178 AUDIO
    TITLE "17:cjc171_09619"
    INDEX 01 03:40:40
  TRACK 179 AUDIO
    TITLE "0:"
    INDEX 01 03:42:15
  TRACK 180 AUDIO
    TITLE "18:cjc171_09620"
    INDEX 01 03:42:62
  TRACK 181 AUDIO
    TITLE "0:"
    INDEX 01 03:44:38
